<?xml version="1.0" standalone="no"?>
<!DOCTYPE svg PUBLIC "-//W3C//DTD SVG 20010904//EN"
 "http://www.w3.org/TR/2001/REC-SVG-20010904/DTD/svg10.dtd">
<svg version="1.0" xmlns="http://www.w3.org/2000/svg"
 width="800.000000pt" height="240.000000pt" viewBox="0 0 800.000000 240.000000"
 preserveAspectRatio="xMidYMid meet">

<g transform="translate(0.000000,240.000000) scale(0.100000,-0.100000)"
fill="#000000" stroke="none">
<path d="M2706 1965 c-250 -44 -377 -158 -416 -376 -21 -117 3 -208 77 -290
53 -58 104 -85 272 -139 83 -27 171 -61 197 -76 83 -49 107 -125 59 -183 -34
-39 -84 -55 -175 -55 -136 1 -210 56 -196 146 l6 38 -169 0 -168 0 -7 -46
c-25 -185 23 -297 156 -361 80 -39 170 -53 345 -53 158 0 247 16 339 59 119
56 185 141 218 281 41 172 -2 310 -119 388 -44 29 -83 43 -328 118 -63 19 -98
36 -129 63 -37 33 -41 42 -41 82 0 62 17 87 76 115 81 37 212 31 267 -14 27
-22 41 -82 28 -129 -5 -21 -10 -44 -11 -52 -2 -11 26 -15 148 -18 83 -2 156 0
163 5 17 12 52 143 52 197 0 141 -91 246 -255 292 -73 21 -293 25 -389 8z"/>
<path d="M291 1825 c-13 -79 -23 -148 -22 -152 0 -4 106 -8 234 -8 149 0 231
-4 230 -10 -2 -12 -148 -846 -168 -960 -8 -44 -15 -86 -15 -93 0 -10 37 -12
167 -10 l167 3 22 135 c12 74 41 239 64 365 22 127 52 293 66 370 14 77 28
154 33 170 l7 30 234 2 235 2 21 126 c12 69 25 137 28 151 l6 24 -643 0 -643
0 -23 -145z"/>
<path d="M3645 1961 c-3 -2 -5 -17 -5 -32 0 -35 -28 -201 -141 -827 -50 -277
-90 -505 -88 -507 2 -1 78 -5 168 -6 l165 -4 13 93 c16 108 71 403 76 409 2 2
89 2 193 1 l190 -3 -44 -243 c-24 -134 -42 -245 -40 -247 1 -2 77 -5 168 -6
l165 -4 3 35 c3 31 70 412 192 1096 22 121 42 228 46 238 6 15 -8 16 -167 14
l-174 -3 -3 -30 c-3 -28 -75 -456 -88 -517 l-6 -28 -194 0 c-107 0 -194 3
-194 6 0 14 101 546 107 559 5 14 -14 16 -166 13 -94 -1 -174 -4 -176 -7z"/>
<path d="M4966 1958 c-2 -7 -11 -65 -21 -128 -16 -108 -83 -495 -104 -605 -33
-162 -112 -627 -109 -630 2 -3 78 -6 168 -7 l164 -3 3 34 c2 18 27 169 57 335
30 165 69 382 86 481 43 251 89 502 96 520 5 13 -16 15 -165 15 -129 0 -173
-3 -175 -12z"/>
<path d="M5590 1957 c0 -10 -97 -555 -181 -1019 -32 -179 -59 -332 -59 -340 0
-10 37 -13 178 -12 l177 0 3 30 c7 69 72 476 77 484 9 15 121 12 132 -2 6 -7
17 -40 26 -73 8 -33 38 -134 67 -225 28 -91 54 -175 57 -187 3 -12 10 -23 17
-26 6 -2 90 -1 187 1 l175 4 -37 130 c-21 72 -59 195 -85 274 l-47 144 62 56
c80 73 116 143 148 293 28 130 34 248 15 303 -17 47 -79 110 -136 137 -24 11
-83 25 -131 31 -100 12 -645 10 -645 -3z m532 -326 c34 -38 45 -105 29 -176
-13 -55 -38 -87 -84 -104 -32 -12 -247 -15 -247 -3 1 24 49 303 54 311 5 7 46
9 114 6 104 -4 108 -5 134 -34z"/>
<path d="M6700 1961 c0 -3 -11 -71 -25 -151 -14 -80 -25 -146 -25 -148 0 -2
106 -2 235 0 l236 3 -6 -40 c-4 -22 -28 -161 -55 -310 -59 -331 -95 -534 -113
-642 l-14 -83 153 0 c84 0 159 -2 166 -5 11 -4 21 37 47 187 19 106 41 236 51
288 9 52 36 205 60 340 24 135 46 249 50 253 4 4 111 8 238 9 128 1 232 4 232
7 0 10 40 255 45 279 l6 23 -641 -2 c-352 -1 -640 -5 -640 -8z"/>
<path d="M1456 1123 c-10 -60 -21 -114 -23 -120 -4 -10 56 -13 279 -13 l284 0
12 88 c7 48 16 102 19 120 l5 32 -279 0 -279 0 -18 -107z"/>
</g>
</svg>
