<?xml version="1.0" encoding="utf-8"?>
<!-- Generator: Adobe Illustrator 26.4.1, SVG Export Plug-In . SVG Version: 6.00 Build 0)  -->
<svg version="1.1" id="Слой_1" xmlns="http://www.w3.org/2000/svg" xmlns:xlink="http://www.w3.org/1999/xlink" x="0px" y="0px"
	 viewBox="0 0 251.4 144.6" style="enable-background:new 0 0 251.4 144.6;" xml:space="preserve">
<g transform="translate(0.000000,240.000000) scale(0.100000,-0.100000)">
	<path d="M1855.2,2369c-250-44-377-158-416-376c-21-117,3-208,77-290c53-58,104-85,272-139c83-27,171-61,197-76
		c83-49,107-125,59-183c-34-39-84-55-175-55c-136,1-210,56-196,146l6,38h-169h-168l-7-46c-25-185,23-297,156-361
		c80-39,170-53,345-53c158,0,247,16,339,59c119,56,185,141,218,281c41,172-2,310-119,388c-44,29-83,43-328,118c-63,19-98,36-129,63
		c-37,33-41,42-41,82c0,62,17,87,76,115c81,37,212,31,267-14c27-22,41-82,28-129c-5-21-10-44-11-52c-2-11,26-15,148-18
		c83-2,156,0,163,5c17,12,52,143,52,197c0,141-91,246-255,292C2171.2,2382,1951.2,2386,1855.2,2369z"/>
	<path d="M25.4,2220.9c-13-79-23-148-22-152c0-4,106-8,234-8c149,0,231-4,230-10c-2-12-148-846-168-960c-8-44-15-86-15-93
		c0-10,37-12,167-10l167,3l22,135c12,74,41,239,64,365c22,127,52,293,66,370s28,154,33,170l7,30l234,2l235,2l21,126
		c12,69,25,137,28,151l6,24h-643h-643L25.4,2220.9z"/>
</g>
</svg>
