<?xml version="1.0" encoding="utf-8"?>
<!-- Generator: Adobe Illustrator 26.4.1, SVG Export Plug-In . SVG Version: 6.00 Build 0)  -->
<svg version="1.1" id="Слой_1" xmlns="http://www.w3.org/2000/svg" xmlns:xlink="http://www.w3.org/1999/xlink" x="0px" y="0px"
	 viewBox="0 0 772.5 144.6" style="enable-background:new 0 0 772.5 144.6;" xml:space="preserve">
<g transform="translate(0.000000,240.000000) scale(0.100000,-0.100000)">
	<path d="M2440.4,2360.9c-250-44-377-158-416-376c-21-117,3-208,77-290c53-58,104-85,272-139c83-27,171-61,197-76
		c83-49,107-125,59-183c-34-39-84-55-175-55c-136,1-210,56-196,146l6,38h-169h-168l-7-46c-25-185,23-297,156-361
		c80-39,170-53,345-53c158,0,247,16,339,59c119,56,185,141,218,281c41,172-2,310-119,388c-44,29-83,43-328,118c-63,19-98,36-129,63
		c-37,33-41,42-41,82c0,62,17,87,76,115c81,37,212,31,267-14c27-22,41-82,28-129c-5-21-10-44-11-52c-2-11,26-15,148-18
		c83-2,156,0,163,5c17,12,52,143,52,197c0,141-91,246-255,292C2756.4,2373.9,2536.4,2377.9,2440.4,2360.9z"/>
	<path d="M25.4,2220.9c-13-79-23-148-22-152c0-4,106-8,234-8c149,0,231-4,230-10c-2-12-148-846-168-960c-8-44-15-86-15-93
		c0-10,37-12,167-10l167,3l22,135c12,74,41,239,64,365c22,127,52,293,66,370s28,154,33,170l7,30l234,2l235,2l21,126
		c12,69,25,137,28,151l6,24h-643h-643L25.4,2220.9z"/>
	<path d="M3379.4,2356.9c-3-2-5-17-5-32c0-35-28-201-141-827c-50-277-90-505-88-507c2-1,78-5,168-6l165-4l13,93
		c16,108,71,403,76,409c2,2,89,2,193,1l190-3l-44-243c-24-134-42-245-40-247c1-2,77-5,168-6l165-4l3,35c3,31,70,412,192,1096
		c22,121,42,228,46,238c6,15-8,16-167,14l-174-3l-3-30c-3-28-75-456-88-517l-6-28h-194c-107,0-194,3-194,6c0,14,101,546,107,559
		c5,14-14,16-166,13C3461.4,2362.9,3381.4,2359.9,3379.4,2356.9z"/>
	<path d="M4700.4,2353.9c-2-7-11-65-21-128c-16-108-83-495-104-605c-33-162-112-627-109-630c2-3,78-6,168-7l164-3l3,34
		c2,18,27,169,57,335c30,165,69,382,86,481c43,251,89,502,96,520c5,13-16,15-165,15C4746.4,2365.9,4702.4,2362.9,4700.4,2353.9z"/>
	<path d="M5324.4,2352.9c0-10-97-555-181-1019c-32-179-59-332-59-340c0-10,37-13,178-12h177l3,30c7,69,72,476,77,484
		c9,15,121,12,132-2c6-7,17-40,26-73c8-33,38-134,67-225c28-91,54-175,57-187s10-23,17-26c6-2,90-1,187,1l175,4l-37,130
		c-21,72-59,195-85,274l-47,144l62,56c80,73,116,143,148,293c28,130,34,248,15,303c-17,47-79,110-136,137c-24,11-83,25-131,31
		C5869.4,2367.9,5324.4,2365.9,5324.4,2352.9z M5856.4,2026.9c34-38,45-105,29-176c-13-55-38-87-84-104c-32-12-247-15-247-3
		c1,24,49,303,54,311c5,7,46,9,114,6C5826.4,2056.9,5830.4,2055.9,5856.4,2026.9z"/>
	<path d="M6434.4,2356.9c0-3-11-71-25-151s-25-146-25-148s106-2,235,0l236,3l-6-40c-4-22-28-161-55-310c-59-331-95-534-113-642
		l-14-83h153c84,0,159-2,166-5c11-4,21,37,47,187c19,106,41,236,51,288c9,52,36,205,60,340s46,249,50,253s111,8,238,9
		c128,1,232,4,232,7c0,10,40,255,45,279l6,23l-641-2C6722.4,2363.9,6434.4,2359.9,6434.4,2356.9z"/>
	<path d="M1190.4,1518.9c-10-60-21-114-23-120c-4-10,56-13,279-13h284l12,88c7,48,16,102,19,120l5,32h-279h-279L1190.4,1518.9z"/>
</g>
</svg>
