<?xml version="1.0" encoding="utf-8"?>
<!-- Generator: Adobe Illustrator 26.4.1, SVG Export Plug-In . SVG Version: 6.00 Build 0)  -->
<svg version="1.1" id="Слой_1" xmlns="http://www.w3.org/2000/svg" xmlns:xlink="http://www.w3.org/1999/xlink" x="0px" y="0px"
	 viewBox="0 0 512 512" style="enable-background:new 0 0 512 512;" xml:space="preserve">
<style type="text/css">
	.st0{stroke:#000000;stroke-width:10;stroke-miterlimit:10;}
</style>
<g transform="translate(0.000000,512.000000) scale(0.100000,-0.100000)">
	<path class="st0" d="M1691.6,5027.1c-212.4-62.4-533.5-164.7-623.6-199.8c-288.8-112.1-533.5-338.2-668.6-617.9
		c-25.5-54.6-84.2-241.7-189.9-615c-84.2-295.3-152.7-543.8-152.7-552.6s9.8-27.3,21.5-40.9c19.6-22.4,72.4-38,443.5-132.5
		c232-58.5,428.8-109.2,437.6-112.1c16.6-4.9,17.6-80.9,19.6-1331.3l2.9-1325.4l23.5-18.5c22.5-18.5,60.7-18.5,1559.5-18.5h1536
		l23.5,24.4l24.5,23.4V1431v1320.6l37.2,9.7c19.6,5.8,216.3,55.6,436.6,112.1c225.2,57.5,407.2,109.2,417,117.9s20.6,26.3,23.5,40
		c6.9,27.3-274.1,1033.1-315.2,1128.6c-118.5,274.8-335.8,500.9-605,630.6c-85.2,40.9-411.2,150.1-667.6,224.2l-150.8,42.9
		l-40.1-23.4c-121.4-68.2-151.7-82.8-228.1-109.2c-136.1-45.8-259.4-67.2-424.9-74.1c-297.6-11.7-557,44.8-754.8,162.8
		c-35.2,21.4-72.4,39-83.2,38C1783.6,5051.5,1737.6,5039.8,1691.6,5027.1z M1832.6,4858.5c382.8-218.3,1064.1-221.2,1451.8-4.9
		l63.6,35.1l75.4-21.4c194.8-56.5,540.4-170.6,617.7-203.7c256.5-110.1,488.5-351.8,576.6-600.3c29.4-81.9,275.1-953.1,270.2-958
		c-4.9-4.9-711.7-187.1-726.4-187.1c-9.8,0-12.7,112.1-12.7,526.3v527.2l-24.5,23.4c-14.7,15.6-35.2,24.4-53.8,24.4
		s-39.2-8.8-53.8-24.4l-24.5-23.4v-1877V218.6H2562.9H1133.6v1876.1v1877l-24.5,23.4c-14.7,15.6-35.2,24.4-53.8,24.4
		c-18.6,0-39.2-8.8-53.8-24.4l-24.5-23.4v-527.2c0-414.2-2.9-526.3-11.7-526.3c-15.7,0-722.5,182.2-728.3,187.1
		c-6.9,6.8,261.4,937.5,290.7,1007.7c88.1,210.5,281.9,412.2,502.2,524.3c86.1,43.9,683.3,244.6,739.1,248.5
		C1775.8,4886.8,1805.2,4874.1,1832.6,4858.5z"/>
</g>
</svg>
