<?xml version="1.0" encoding="utf-8"?>
<!-- Generator: Adobe Illustrator 26.4.1, SVG Export Plug-In . SVG Version: 6.00 Build 0)  -->
<svg version="1.1" id="Слой_1" xmlns="http://www.w3.org/2000/svg" xmlns:xlink="http://www.w3.org/1999/xlink" x="0px" y="0px"
	 viewBox="0 0 20.4 12.4" style="enable-background:new 0 0 20.4 12.4;" xml:space="preserve">
<path d="M19.7,1c0.1-0.5,0-0.8-0.7-0.8h-2.2c-0.6,0-0.8,0.3-1,0.6c0,0-1.1,2.7-2.7,4.5c-0.5,0.5-0.7,0.7-1,0.7
	c-0.1,0-0.3-0.2-0.3-0.6V1c0-0.6-0.2-0.8-0.6-0.8H7.8c-0.3,0-0.6,0.3-0.6,0.5c0,0.5,0.8,0.7,0.9,2.1v3.2c0,0.7-0.1,0.8-0.4,0.8
	C7,6.9,5.2,4.2,4.1,1.1c-0.2-0.6-0.4-0.9-1-0.9H0.9c-0.6,0-0.8,0.3-0.8,0.6c0,0.6,0.7,3.5,3.5,7.3c1.8,2.6,4.4,4,6.7,4
	c1.4,0,1.6-0.3,1.6-0.9v-2c0-0.6,0.1-0.8,0.6-0.8c0.3,0,0.9,0.2,2.2,1.4c1.5,1.5,1.7,2.2,2.6,2.2h2.2c0.6,0,0.9-0.3,0.8-0.9
	c-0.2-0.6-0.9-1.5-1.8-2.6C17.8,8,17,7.4,16.8,7c-0.3-0.4-0.2-0.6,0-1C16.8,6.1,19.5,2.3,19.7,1z"/>
</svg>
