<?xml version="1.0" standalone="no"?>
<!DOCTYPE svg PUBLIC "-//W3C//DTD SVG 20010904//EN"
 "http://www.w3.org/TR/2001/REC-SVG-20010904/DTD/svg10.dtd">
<svg version="1.0" xmlns="http://www.w3.org/2000/svg"
 width="574.000000pt" height="574.000000pt" viewBox="0 0 574.000000 574.000000"
 preserveAspectRatio="xMidYMid meet">
<metadata>
Created by potrace 1.14, written by Peter Selinger 2001-2017
</metadata>
<g transform="translate(0.000000,574.000000) scale(0.100000,-0.100000)"
fill="#000000" stroke="none">
<path d="M309 5738 c-4 -15 -10 -50 -14 -78 -2 -19 -4 -35 -5 -35 -1 0 -3 -11
-5 -25 -2 -14 -7 -45 -11 -70 -4 -25 -7 -55 -7 -67 -1 -13 -3 -23 -6 -23 -6 0
-12 -44 -15 -102 0 -16 -3 -28 -6 -28 -3 0 -6 -8 -7 -17 -2 -28 -12 -118 -13
-118 -2 0 -7 -25 -15 -75 -4 -25 -9 -56 -12 -70 -2 -14 -5 -38 -7 -55 -2 -16
-7 -46 -11 -65 -3 -19 -8 -51 -11 -70 -9 -69 -12 -85 -14 -85 -1 0 -3 -18 -4
-40 -1 -22 -5 -49 -9 -60 -11 -40 -18 -153 -9 -159 6 -3 40 -7 76 -8 36 -2 66
-7 66 -11 0 -4 8 -3 19 2 10 6 21 8 24 4 7 -6 187 -11 540 -14 136 -1 250 -6
253 -11 3 -4 11 -5 17 -1 19 12 91 11 99 -1 5 -7 8 -7 8 -1 0 12 99 14 116 3
6 -4 14 -4 18 0 11 10 146 9 146 -1 0 -4 5 -5 12 -1 18 11 78 11 78 0 0 -6 4
-6 11 1 7 7 20 8 34 3 12 -4 28 -4 35 0 8 5 19 6 25 2 5 -3 46 -7 90 -8 68 -2
130 -6 230 -17 22 -2 24 -32 10 -112 -10 -55 -14 -80 -19 -112 -4 -26 -10 -56
-20 -108 -3 -17 -16 -89 -41 -240 -3 -16 -10 -52 -15 -80 -5 -27 -12 -68 -15
-89 -3 -21 -7 -48 -10 -60 -6 -26 -14 -70 -20 -116 -3 -19 -8 -46 -12 -60 -3
-14 -7 -34 -8 -45 -11 -77 -17 -113 -22 -130 -3 -11 -7 -29 -8 -40 -1 -11 -5
-34 -8 -50 -4 -17 -9 -46 -12 -65 -2 -19 -7 -48 -10 -65 -4 -16 -7 -38 -8 -47
-1 -10 -4 -18 -7 -18 -3 0 -5 -19 -5 -43 0 -23 -3 -44 -7 -48 -4 -3 -10 -27
-12 -55 -3 -27 -6 -49 -7 -49 -1 0 -3 -13 -4 -30 -1 -16 -5 -37 -8 -45 -4 -8
-8 -31 -11 -50 -2 -19 -5 -35 -6 -35 -1 0 -3 -11 -4 -25 -2 -14 -6 -43 -10
-65 -5 -22 -10 -51 -12 -65 -3 -14 -7 -36 -9 -50 -3 -14 -8 -43 -11 -65 -10
-68 -12 -80 -14 -80 -2 0 -8 -35 -15 -89 -4 -27 -11 -60 -16 -73 -6 -16 -5
-23 4 -23 9 0 9 -2 1 -8 -7 -4 -15 -27 -18 -52 -3 -25 -8 -56 -11 -70 -14 -68
-21 -110 -30 -165 -10 -68 -15 -99 -21 -125 -3 -14 -7 -41 -8 -61 -2 -20 -5
-40 -8 -45 -6 -10 -15 -55 -24 -124 -4 -25 -10 -55 -15 -68 -6 -16 -6 -21 2
-16 8 4 8 1 1 -12 -9 -17 -21 -76 -28 -129 -1 -11 -5 -38 -9 -60 -4 -22 -7
-46 -8 -52 0 -7 -3 -13 -6 -13 -3 0 -6 -12 -7 -27 -1 -30 -12 -101 -29 -183
-3 -14 -8 -45 -11 -70 -3 -25 -8 -47 -9 -50 -2 -3 -6 -24 -9 -46 -4 -22 -8
-51 -11 -64 -3 -13 -7 -42 -11 -65 -3 -22 -7 -44 -8 -50 -1 -5 -5 -16 -9 -22
-5 -8 -3 -13 5 -13 8 0 9 -3 3 -8 -5 -4 -11 -11 -12 -17 0 -5 -4 -26 -7 -45
-4 -19 -9 -48 -11 -65 -8 -52 -14 -89 -20 -115 -3 -14 -8 -43 -11 -65 -3 -22
-8 -51 -10 -65 -14 -76 -13 -109 3 -122 13 -10 143 -13 690 -13 370 -1 677 1
682 5 8 4 17 52 26 135 2 17 4 30 5 30 2 0 9 36 15 85 3 25 7 52 9 60 5 14 13
65 21 123 2 15 7 32 10 37 3 6 0 10 -7 10 -8 0 -9 3 -3 8 6 4 11 12 12 18 12
67 20 118 28 179 2 17 4 30 5 30 3 0 10 40 15 85 3 25 9 54 12 65 3 11 7 31 8
45 2 14 10 66 19 115 9 50 18 101 20 115 3 14 5 25 6 25 1 0 3 9 4 20 11 82
17 122 21 135 2 8 7 31 10 50 3 19 8 48 11 63 3 16 8 39 10 53 2 13 6 36 9 52
7 35 11 58 19 107 3 23 9 52 11 65 3 14 7 36 9 50 3 14 8 45 12 70 5 25 9 50
10 55 1 6 3 12 4 15 5 13 10 49 12 82 2 21 5 38 9 38 3 0 6 10 7 23 1 23 3 32
22 137 6 36 13 76 15 90 1 14 5 32 8 40 3 8 8 33 11 55 8 66 23 150 26 150 1
0 3 15 6 34 2 19 6 46 9 60 3 14 8 42 11 61 3 19 10 40 15 47 7 7 6 14 -1 18
-6 3 -7 11 -4 17 4 6 8 21 10 32 2 12 5 30 7 41 4 17 15 80 23 125 1 8 5 26 8
40 3 14 8 43 11 65 9 54 11 65 18 100 4 17 9 48 13 70 3 22 7 49 10 60 2 11 9
47 14 79 6 33 13 63 16 68 3 4 -1 8 -8 8 -10 0 -11 2 0 8 7 5 14 26 17 48 2
21 4 39 5 39 3 0 9 40 12 68 1 15 5 27 8 27 3 0 6 10 6 23 1 21 8 63 19 117 3
14 7 39 10 55 3 17 7 41 10 55 3 14 7 39 10 55 3 17 7 41 10 55 3 14 7 39 9
55 2 17 6 37 9 45 3 8 9 33 12 55 14 81 16 90 27 96 6 4 7 9 0 13 -6 4 -5 21
5 47 8 23 12 48 9 55 -3 7 -1 14 4 16 5 2 11 14 13 28 10 60 -7 57 305 59 214
2 819 9 957 11 6 0 61 -1 123 -2 63 -2 115 -2 116 0 2 1 107 3 235 4 159 1
231 5 232 12 0 11 3 26 14 91 3 17 8 48 11 70 2 22 9 60 14 85 5 25 12 61 15
80 2 19 7 46 10 60 2 14 7 41 9 60 3 19 8 46 11 60 3 14 7 41 10 60 5 35 10
64 20 110 3 14 7 39 9 57 3 18 7 40 10 50 3 10 7 36 11 58 10 66 22 130 25
130 1 0 3 11 4 25 0 14 4 30 7 35 4 6 7 56 8 113 l2 102 -2660 0 c-1464 0
-2661 -1 -2662 -2z"/>
</g>
</svg>
